<?xml version="1.0" encoding="UTF-8" standalone="no"?> <svg xmlns:dc="http://purl.org/dc/elements/1.1/" xmlns:cc="http://creativecommons.org/ns#" xmlns:rdf="http://www.w3.org/1999/02/22-rdf-syntax-ns#" xmlns:svg="http://www.w3.org/2000/svg" xmlns="http://www.w3.org/2000/svg" viewBox="0 0 462.01868 113.97307" height="20" width="80" xml:space="preserve" id="svg2"> <metadata id="metadata8"></metadata> <defs id="defs6"> <clipPath id="clipPath18" clipPathUnits="userSpaceOnUse"> <path id="path16" d="M 0,85.48 H 346.514 V 0 H 0 Z"></path> </clipPath> </defs> <g transform="matrix(1.3333333,0,0,-1.3333333,0,113.97307)" id="g10"> <g id="g12"> <g clip-path="url(#clipPath18)" id="g14"> <g transform="translate(46.6692,23.6975)" id="g20"> <path id="path22" style="fill:#000047;fill-opacity:1;fill-rule:nonzero;stroke:none" d="m 0,0 v -22.851 h -10.156 c -18.701,0 -28.05,9.31 -28.05,27.929 v 17.894 h -8.463 v 22.367 h 8.463 v 16.443 h 26.841 V 45.339 H -0.242 V 22.972 H -11.365 V 4.594 c 0,-1.613 0.382,-2.781 1.148,-3.506 C -9.451,0.363 -8.182,0 -6.408,0 Z"></path> </g> <g transform="translate(93.8205,65.9537)" id="g24"> <path id="path26" style="fill:#000047;fill-opacity:1;fill-rule:nonzero;stroke:none" d="M 0,0 C 3.948,2.377 8.059,3.566 12.332,3.566 V -25.088 H 4.715 c -5.077,0 -8.806,-0.888 -11.183,-2.66 -2.379,-1.774 -3.567,-4.917 -3.567,-9.43 v -27.929 h -26.841 v 68.19 h 26.841 V -9.491 C -7.295,-5.543 -3.95,-2.379 0,0"></path> </g> <g transform="translate(189.7607,26.3575)" id="g28"> <path id="path30" style="fill:#000047;fill-opacity:1;fill-rule:nonzero;stroke:none" d="m 0,0 10.881,42.679 h 28.534 l -22.73,-68.19 h -33.491 l -22.73,68.19 h 28.533 z"></path> </g> <g transform="translate(316.7723,26.1763)" id="g32"> <path id="path34" style="fill:#000047;fill-opacity:1;fill-rule:nonzero;stroke:none" d="m 0,0 c 1.693,1.974 2.539,4.896 2.539,8.765 0,3.869 -0.846,6.79 -2.539,8.766 -1.693,1.974 -3.79,2.962 -6.288,2.962 -2.498,0 -4.594,-0.988 -6.286,-2.962 -1.693,-1.976 -2.539,-4.897 -2.539,-8.766 0,-3.869 0.825,-6.791 2.478,-8.765 1.652,-1.977 3.767,-2.962 6.347,-2.962 2.498,0 4.595,0.985 6.288,2.962 m -24.786,-21.945 c -5.482,2.821 -9.774,6.871 -12.876,12.151 -3.104,5.279 -4.655,11.466 -4.655,18.559 0,7.092 1.551,13.279 4.655,18.559 3.102,5.278 7.394,9.329 12.876,12.151 5.481,2.821 11.647,4.231 18.498,4.231 6.851,0 13.017,-1.41 18.499,-4.231 5.48,-2.822 9.772,-6.873 12.876,-12.151 3.102,-5.28 4.655,-11.467 4.655,-18.559 0,-7.093 -1.553,-13.28 -4.655,-18.559 -3.104,-5.28 -7.396,-9.33 -12.876,-12.151 -5.482,-2.822 -11.648,-4.231 -18.499,-4.231 -6.851,0 -13.017,1.409 -18.498,4.231"></path> </g> <g transform="translate(123.5415,0.7833)" id="g36"> <path id="path38" style="fill:#000047;fill-opacity:1;fill-rule:nonzero;stroke:none" d="M 0,0 C 0,3.081 2.498,5.579 5.579,5.579 8.66,5.579 11.158,3.081 11.158,0 H 21.293 V 68.253 H 11.158 C 11.158,65.172 8.66,62.675 5.579,62.675 2.498,62.675 0,65.172 0,68.253 H -10.135 V 0 Z"></path> </g> <g transform="translate(257.6,69.1)" id="g40"> <path id="path42" style="fill:#000047;fill-opacity:1;fill-rule:nonzero;stroke:none" d="m 0,0 c 0,-3.081 -2.498,-5.579 -5.579,-5.579 -3.081,0 -5.579,2.498 -5.579,5.579 h -10.135 v -68.253 h 10.135 c 0,3.081 2.498,5.578 5.579,5.578 3.081,0 5.579,-2.497 5.579,-5.578 H 10.135 V 0 Z"></path> </g> </g> </g> </g> </svg>